<svg xmlns="http://www.w3.org/2000/svg" viewBox="0 0 500 500" width="500" height="500">
  <rect width="500" height="500" fill="white"/>
  <path d="M250,38 L92,96 L92,242 C92,336 165,410 250,436 C335,410 408,336 408,242 L408,96 Z" fill="#1b5e8c"/>
  <path d="M250,60 L112,113 L112,242 C112,326 178,394 250,418 C322,394 388,326 388,242 L388,113 Z" fill="white"/>
  <path d="M250,78 L126,127 L126,242 C126,318 186,381 250,403 C314,381 374,318 374,242 L374,127 Z" fill="#5ab0df"/>
  <text
    x="250"
    y="240"
    text-anchor="middle"
    dominant-baseline="central"
    font-family="'Arial Black', 'Franklin Gothic Heavy', Arial, sans-serif"
    font-size="260"
    font-weight="900"
    fill="white"
  >P</text>
</svg>
